External Loads File
version=1
nRows=53
nColumns=13
Range=1.000000e-02-10 seconds
endheader
time 	forceRightX 	forceRightY 	forceRightZ 	pointRightX 	pointRightY 	pointRightZ 	forceLeftX 	forceLeftY 	forceLeftZ 	pointLeftX 	pointLeftY 	pointLeftZ 		
7.510000 17.095975 182.798720 -2.606438 0.364818 0.473162 -0.096560 -2809.105995 2516.085910 -72.284132 0.322833 0.126187 -0.335175
7.520000 22.748420 188.675285 -2.629204 0.376015 0.473344 -0.096785 -2589.650589 2741.403619 -73.124348 0.311299 0.127133 -0.335180
7.530000 25.268894 193.140450 -2.667722 0.387123 0.472639 -0.096950 -2387.666189 2919.011401 -73.439868 0.299589 0.128864 -0.335117
7.540000 25.039128 196.019041 -2.714734 0.398125 0.470784 -0.097053 -2195.400497 3066.287543 -73.405207 0.288123 0.131669 -0.335152
7.550000 25.446123 196.721276 -2.720665 0.408914 0.467996 -0.097197 -1960.887671 3221.408346 -72.985934 0.276938 0.135191 -0.335117
7.560000 23.617726 195.915039 -2.730133 0.419470 0.463953 -0.097299 -1728.365502 3352.024917 -72.213668 0.266019 0.139730 -0.335045
7.570000 23.800604 193.150301 -2.685433 0.429799 0.458996 -0.097394 -1425.820011 3491.578814 -70.741415 0.255409 0.145061 -0.335105
7.580000 18.358436 190.094260 -2.703524 0.439800 0.453021 -0.097382 -1196.092784 3576.866979 -69.305560 0.245152 0.151509 -0.335048
7.590000 13.446966 186.710295 -2.710225 0.449315 0.446166 -0.097351 -942.396053 3651.998870 -67.426879 0.235390 0.158644 -0.335029
7.600000 12.336061 183.076817 -2.667639 0.458394 0.438479 -0.096995 -615.643364 3721.127203 -64.582198 0.226330 0.166618 -0.334974
7.610000 9.142835 179.617413 -2.652632 0.466640 0.430190 -0.097026 -345.967036 3755.848084 -61.891017 0.218090 0.175141 -0.335008
7.620000 5.218476 176.448028 -2.650828 0.474106 0.421183 -0.097011 -113.490088 3770.028078 -59.328849 0.210661 0.183893 -0.334961
7.630000 4.363949 173.871092 -2.621422 0.480838 0.411599 -0.097094 167.817843 3767.940707 -55.932565 0.204090 0.192973 -0.335038
7.640000 2.031381 172.778306 -2.632513 0.486989 0.401372 -0.097067 407.895902 3749.481283 -52.777600 0.198202 0.203065 -0.335083
7.650000 4.616191 173.473170 -2.612286 0.492284 0.390466 -0.097082 749.286105 3696.396214 -47.878596 0.193204 0.213293 -0.335075
7.660000 3.061786 175.776766 -2.666298 0.496995 0.378913 -0.097114 991.914454 3638.793758 -44.091230 0.188942 0.224390 -0.335048
7.670000 3.691819 178.909233 -2.706931 0.500772 0.367198 -0.096845 1264.315411 3553.323257 -39.519285 0.185651 0.235402 -0.335045
7.680000 2.283569 182.395686 -2.777384 0.503774 0.355080 -0.096538 1481.087190 3468.548543 -35.623313 0.183397 0.246687 -0.335007
7.690000 6.893191 186.174289 -2.780360 0.505792 0.342682 -0.096083 1797.976183 3315.316347 -29.477362 0.182059 0.258352 -0.335055
7.700000 6.758929 191.097428 -2.857669 0.506979 0.330021 -0.095982 2015.613865 3187.649744 -24.911488 0.181563 0.269803 -0.335113
7.710000 7.536143 197.304977 -2.943827 0.507218 0.317130 -0.096522 2242.309761 3032.417915 -19.813416 0.181870 0.281626 -0.335163
7.720000 5.840648 204.863158 -3.080326 0.506618 0.304179 -0.096203 2428.465138 2885.418347 -15.326759 0.183112 0.293550 -0.335210
7.730000 10.126284 213.362402 -3.159766 0.505106 0.291101 -0.095702 2686.885400 2646.299806 -8.559369 0.185101 0.305392 -0.335243
7.740000 8.231704 223.489968 -3.338155 0.502802 0.278148 -0.095606 2852.070571 2467.171314 -3.829451 0.187757 0.316948 -0.335110
7.750000 8.212547 235.914881 -3.529442 0.499269 0.265437 -0.095305 3025.687466 2250.621863 1.576724 0.191406 0.328668 -0.335202
7.760000 4.918758 251.725082 -3.811945 0.495264 0.252855 -0.095292 3156.279619 2063.266128 6.019451 0.195713 0.340159 -0.335187
7.770000 5.719337 271.340483 -4.103997 0.490759 0.240621 -0.095817 3307.079647 1811.534849 11.693746 0.201146 0.351629 -0.335469
7.780000 9.580418 294.821973 -4.418896 0.485118 0.228647 -0.095997 3453.464997 1513.762029 18.023226 0.206726 0.362722 -0.335138
7.790000 8.682736 321.860846 -4.845407 0.478656 0.217214 -0.096150 3552.060029 1265.006013 23.027447 0.213309 0.373541 -0.335123
7.800000 3.903457 351.749196 -5.362155 0.471517 0.206154 -0.096210 3621.287007 1050.205618 27.158318 0.220496 0.384161 -0.335001
7.810000 5.125649 383.728177 -5.839279 0.463618 0.195595 -0.096212 3690.573209 771.599413 32.271037 0.228410 0.394179 -0.334992
7.820000 13.339314 416.651197 -6.247307 0.455062 0.185652 -0.096201 3744.582867 439.056554 38.030445 0.236889 0.404012 -0.334939
7.830000 15.549306 449.263291 -6.722353 0.445805 0.176337 -0.096110 3765.917375 177.452068 42.308271 0.245968 0.413096 -0.334918
7.840000 15.707801 479.499544 -7.185399 0.436054 0.167569 -0.095988 3769.541928 -56.067438 45.942440 0.255657 0.421678 -0.334859
7.850000 23.662447 505.301983 -7.487032 0.425887 0.159841 -0.095892 3754.591499 -339.040082 50.114909 0.265643 0.429520 -0.334826
7.860000 39.076290 524.654434 -7.600279 0.415295 0.152741 -0.095804 3711.243319 -662.069993 54.563725 0.276108 0.436791 -0.334910
7.870000 49.175122 536.940849 -7.668434 0.404387 0.146620 -0.095736 3651.977767 -935.361053 58.057352 0.286974 0.443296 -0.334999
7.880000 54.687995 541.546103 -7.673320 0.393222 0.141215 -0.095681 3582.426772 -1174.027079 60.895546 0.298194 0.449233 -0.335041
7.890000 65.558237 536.983533 -7.473163 0.381838 0.136939 -0.095707 3480.817599 -1447.787503 63.889998 0.309319 0.454134 -0.335123
7.900000 65.923941 525.351801 -7.289929 0.369920 0.133343 -0.095192 3387.661963 -1654.040293 65.947485 0.320720 0.458415 -0.335153
7.910000 94.411620 501.871177 -6.588181 0.358242 0.130902 -0.095105 3169.850365 -2040.633466 69.287288 0.332158 0.461866 -0.335280
7.920000 104.950315 474.441957 -6.040370 0.346412 0.129145 -0.095033 2976.780388 -2313.167499 71.169095 0.344561 0.464395 -0.336161
7.930000 91.487833 447.916087 -5.793481 0.334541 0.128516 -0.094955 2880.207422 -2432.282733 71.845801 0.355763 0.465985 -0.335670
7.940000 97.040198 415.192988 -5.223898 0.323009 0.128855 -0.095126 2663.711740 -2667.653839 72.876004 0.367365 0.466616 -0.335689
7.950000 94.266300 383.822005 -4.774680 0.311308 0.130139 -0.095064 2477.810371 -2841.253729 73.322233 0.379021 0.466294 -0.335697
7.960000 91.690293 353.227050 -4.335029 0.299711 0.132256 -0.095078 2278.995149 -3003.269899 73.435902 0.390554 0.464928 -0.335801
7.970000 95.626898 321.999339 -3.807764 0.288277 0.135156 -0.094890 2006.416751 -3192.104828 73.079822 0.401857 0.462684 -0.335828
7.980000 92.519583 293.795377 -3.411233 0.277066 0.139073 -0.094847 1784.223849 -3321.713122 72.415579 0.412993 0.459573 -0.335747
7.990000 90.133146 265.768585 -3.008805 0.266077 0.143796 -0.094753 1537.193545 -3443.288877 71.330789 0.423649 0.455407 -0.335758
8.000000 84.635884 238.658805 -2.657681 0.255625 0.149676 -0.094672 1308.381760 -3536.800675 70.032336 0.433814 0.450555 -0.335676
8.010000 79.457026 211.572911 -2.303117 0.245642 0.156100 -0.094646 1048.904392 -3622.408638 68.245614 0.443390 0.444726 -0.335708
8.020000 74.922196 185.386054 -1.954675 0.236001 0.163283 -0.094574 745.610752 -3696.837221 65.762984 0.452383 0.438230 -0.335705
8.030000 67.593911 163.229673 -1.701616 0.227181 0.171517 -0.094658 475.174105 -3741.206564 63.211074 0.460680 0.430822 -0.335604
